<?xml version="1.0" standalone="no"?><svg xmlns="http://www.w3.org/2000/svg" viewBox="0 0 1440 320"><path fill="#000000" fill-opacity="1" d="M0,160L11.4,160C22.9,160,46,160,69,160C91.4,160,114,160,137,170.7C160,181,183,203,206,202.7C228.6,203,251,181,274,160C297.1,139,320,117,343,128C365.7,139,389,181,411,181.3C434.3,181,457,139,480,117.3C502.9,96,526,96,549,80C571.4,64,594,32,617,58.7C640,85,663,171,686,186.7C708.6,203,731,149,754,122.7C777.1,96,800,96,823,128C845.7,160,869,224,891,218.7C914.3,213,937,139,960,144C982.9,149,1006,235,1029,240C1051.4,245,1074,171,1097,128C1120,85,1143,75,1166,90.7C1188.6,107,1211,149,1234,154.7C1257.1,160,1280,128,1303,106.7C1325.7,85,1349,75,1371,85.3C1394.3,96,1417,128,1429,144L1440,160L1440,0L1428.6,0C1417.1,0,1394,0,1371,0C1348.6,0,1326,0,1303,0C1280,0,1257,0,1234,0C1211.4,0,1189,0,1166,0C1142.9,0,1120,0,1097,0C1074.3,0,1051,0,1029,0C1005.7,0,983,0,960,0C937.1,0,914,0,891,0C868.6,0,846,0,823,0C800,0,777,0,754,0C731.4,0,709,0,686,0C662.9,0,640,0,617,0C594.3,0,571,0,549,0C525.7,0,503,0,480,0C457.1,0,434,0,411,0C388.6,0,366,0,343,0C320,0,297,0,274,0C251.4,0,229,0,206,0C182.9,0,160,0,137,0C114.3,0,91,0,69,0C45.7,0,23,0,11,0L0,0Z"></path></svg>