<?xml version="1.0" standalone="no"?><svg xmlns="http://www.w3.org/2000/svg" viewBox="0 0 1440 320"><path fill="#ff00a8" fill-opacity="1" d="M0,224L6.2,197.3C12.3,171,25,117,37,128C49.2,139,62,213,74,240C86.2,267,98,245,111,218.7C123.1,192,135,160,148,170.7C160,181,172,235,185,245.3C196.9,256,209,224,222,202.7C233.8,181,246,171,258,160C270.8,149,283,139,295,133.3C307.7,128,320,128,332,128C344.6,128,357,128,369,160C381.5,192,394,256,406,240C418.5,224,431,128,443,117.3C455.4,107,468,181,480,181.3C492.3,181,505,107,517,85.3C529.2,64,542,96,554,128C566.2,160,578,192,591,202.7C603.1,213,615,203,628,213.3C640,224,652,256,665,266.7C676.9,277,689,267,702,224C713.8,181,726,107,738,90.7C750.8,75,763,117,775,149.3C787.7,181,800,203,812,202.7C824.6,203,837,181,849,165.3C861.5,149,874,139,886,133.3C898.5,128,911,128,923,138.7C935.4,149,948,171,960,181.3C972.3,192,985,192,997,176C1009.2,160,1022,128,1034,106.7C1046.2,85,1058,75,1071,74.7C1083.1,75,1095,85,1108,85.3C1120,85,1132,75,1145,101.3C1156.9,128,1169,192,1182,202.7C1193.8,213,1206,171,1218,176C1230.8,181,1243,235,1255,261.3C1267.7,288,1280,288,1292,240C1304.6,192,1317,96,1329,80C1341.5,64,1354,128,1366,138.7C1378.5,149,1391,107,1403,106.7C1415.4,107,1428,149,1434,170.7L1440,192L1440,0L1433.8,0C1427.7,0,1415,0,1403,0C1390.8,0,1378,0,1366,0C1353.8,0,1342,0,1329,0C1316.9,0,1305,0,1292,0C1280,0,1268,0,1255,0C1243.1,0,1231,0,1218,0C1206.2,0,1194,0,1182,0C1169.2,0,1157,0,1145,0C1132.3,0,1120,0,1108,0C1095.4,0,1083,0,1071,0C1058.5,0,1046,0,1034,0C1021.5,0,1009,0,997,0C984.6,0,972,0,960,0C947.7,0,935,0,923,0C910.8,0,898,0,886,0C873.8,0,862,0,849,0C836.9,0,825,0,812,0C800,0,788,0,775,0C763.1,0,751,0,738,0C726.2,0,714,0,702,0C689.2,0,677,0,665,0C652.3,0,640,0,628,0C615.4,0,603,0,591,0C578.5,0,566,0,554,0C541.5,0,529,0,517,0C504.6,0,492,0,480,0C467.7,0,455,0,443,0C430.8,0,418,0,406,0C393.8,0,382,0,369,0C356.9,0,345,0,332,0C320,0,308,0,295,0C283.1,0,271,0,258,0C246.2,0,234,0,222,0C209.2,0,197,0,185,0C172.3,0,160,0,148,0C135.4,0,123,0,111,0C98.5,0,86,0,74,0C61.5,0,49,0,37,0C24.6,0,12,0,6,0L0,0Z"></path></svg>