<?xml version="1.0" standalone="no"?><svg xmlns="http://www.w3.org/2000/svg" viewBox="0 0 1440 320"><path fill="#000000" fill-opacity="1" d="M0,64L17.1,90.7C34.3,117,69,171,103,176C137.1,181,171,139,206,101.3C240,64,274,32,309,32C342.9,32,377,64,411,106.7C445.7,149,480,203,514,197.3C548.6,192,583,128,617,117.3C651.4,107,686,149,720,181.3C754.3,213,789,235,823,234.7C857.1,235,891,213,926,170.7C960,128,994,64,1029,69.3C1062.9,75,1097,149,1131,192C1165.7,235,1200,245,1234,245.3C1268.6,245,1303,235,1337,213.3C1371.4,192,1406,160,1423,144L1440,128L1440,320L1422.9,320C1405.7,320,1371,320,1337,320C1302.9,320,1269,320,1234,320C1200,320,1166,320,1131,320C1097.1,320,1063,320,1029,320C994.3,320,960,320,926,320C891.4,320,857,320,823,320C788.6,320,754,320,720,320C685.7,320,651,320,617,320C582.9,320,549,320,514,320C480,320,446,320,411,320C377.1,320,343,320,309,320C274.3,320,240,320,206,320C171.4,320,137,320,103,320C68.6,320,34,320,17,320L0,320Z"></path></svg>