<?xml version="1.0" standalone="no"?><svg xmlns="http://www.w3.org/2000/svg" viewBox="0 0 1440 320"><path fill="#ff00a8" fill-opacity="1" d="M0,160L9.2,170.7C18.5,181,37,203,55,192C73.8,181,92,139,111,133.3C129.2,128,148,160,166,176C184.6,192,203,192,222,181.3C240,171,258,149,277,165.3C295.4,181,314,235,332,218.7C350.8,203,369,117,388,85.3C406.2,53,425,75,443,90.7C461.5,107,480,117,498,112C516.9,107,535,85,554,96C572.3,107,591,149,609,138.7C627.7,128,646,64,665,42.7C683.1,21,702,43,720,90.7C738.5,139,757,213,775,250.7C793.8,288,812,288,831,272C849.2,256,868,224,886,186.7C904.6,149,923,107,942,101.3C960,96,978,128,997,149.3C1015.4,171,1034,181,1052,181.3C1070.8,181,1089,171,1108,154.7C1126.2,139,1145,117,1163,128C1181.5,139,1200,181,1218,208C1236.9,235,1255,245,1274,234.7C1292.3,224,1311,192,1329,154.7C1347.7,117,1366,75,1385,53.3C1403.1,32,1422,32,1431,32L1440,32L1440,320L1430.8,320C1421.5,320,1403,320,1385,320C1366.2,320,1348,320,1329,320C1310.8,320,1292,320,1274,320C1255.4,320,1237,320,1218,320C1200,320,1182,320,1163,320C1144.6,320,1126,320,1108,320C1089.2,320,1071,320,1052,320C1033.8,320,1015,320,997,320C978.5,320,960,320,942,320C923.1,320,905,320,886,320C867.7,320,849,320,831,320C812.3,320,794,320,775,320C756.9,320,738,320,720,320C701.5,320,683,320,665,320C646.2,320,628,320,609,320C590.8,320,572,320,554,320C535.4,320,517,320,498,320C480,320,462,320,443,320C424.6,320,406,320,388,320C369.2,320,351,320,332,320C313.8,320,295,320,277,320C258.5,320,240,320,222,320C203.1,320,185,320,166,320C147.7,320,129,320,111,320C92.3,320,74,320,55,320C36.9,320,18,320,9,320L0,320Z"></path></svg>