<?xml version="1.0" standalone="no"?><svg xmlns="http://www.w3.org/2000/svg" viewBox="0 0 1440 320"><path fill="#000000" fill-opacity="1" d="M0,288L8.3,266.7C16.6,245,33,203,50,165.3C66.2,128,83,96,99,117.3C115.9,139,132,213,149,240C165.5,267,182,245,199,213.3C215.2,181,232,139,248,112C264.8,85,281,75,298,80C314.5,85,331,107,348,122.7C364.1,139,381,149,397,170.7C413.8,192,430,224,447,208C463.4,192,480,128,497,117.3C513.1,107,530,149,546,165.3C562.8,181,579,171,596,176C612.4,181,629,203,646,192C662.1,181,679,139,695,122.7C711.7,107,728,117,745,122.7C761.4,128,778,128,794,154.7C811,181,828,235,844,213.3C860.7,192,877,96,894,101.3C910.3,107,927,213,943,250.7C960,288,977,256,993,224C1009.7,192,1026,160,1043,170.7C1059.3,181,1076,235,1092,250.7C1109,267,1126,245,1142,218.7C1158.6,192,1175,160,1192,138.7C1208.3,117,1225,107,1241,138.7C1257.9,171,1274,245,1291,250.7C1307.6,256,1324,192,1341,144C1357.2,96,1374,64,1390,69.3C1406.9,75,1423,117,1432,138.7L1440,160L1440,0L1431.7,0C1423.4,0,1407,0,1390,0C1373.8,0,1357,0,1341,0C1324.1,0,1308,0,1291,0C1274.5,0,1258,0,1241,0C1224.8,0,1208,0,1192,0C1175.2,0,1159,0,1142,0C1125.5,0,1109,0,1092,0C1075.9,0,1059,0,1043,0C1026.2,0,1010,0,993,0C976.6,0,960,0,943,0C926.9,0,910,0,894,0C877.2,0,861,0,844,0C827.6,0,811,0,794,0C777.9,0,761,0,745,0C728.3,0,712,0,695,0C678.6,0,662,0,646,0C629,0,612,0,596,0C579.3,0,563,0,546,0C529.7,0,513,0,497,0C480,0,463,0,447,0C430.3,0,414,0,397,0C380.7,0,364,0,348,0C331,0,314,0,298,0C281.4,0,265,0,248,0C231.7,0,215,0,199,0C182.1,0,166,0,149,0C132.4,0,116,0,99,0C82.8,0,66,0,50,0C33.1,0,17,0,8,0L0,0Z"></path></svg>